HIERARCHY
ROOT Hips
{
 OFFSET 0.000000 0.000000 0.000000
 CHANNELS 6 Xposition Yposition Zposition Yrotation Xrotation Zrotation
 JOINT Chest
 {
  OFFSET 0.000000 9.585900 0.002600
  CHANNELS 3 Yrotation Xrotation Zrotation
  JOINT Chest2
  {
   OFFSET 0.000000 9.601200 -0.005300
   CHANNELS 3 Yrotation Xrotation Zrotation
   JOINT Chest3
   {
    OFFSET 0.000000 9.561800 0.000000
    CHANNELS 3 Yrotation Xrotation Zrotation
    JOINT Chest4
    {
     OFFSET 0.000000 9.552100 0.000000
     CHANNELS 3 Yrotation Xrotation Zrotation
     JOINT Neck
     {
      OFFSET 0.000000 14.453000 0.000000
      CHANNELS 3 Yrotation Xrotation Zrotation
      JOINT Head
      {
       OFFSET 0.000000 8.936500 -0.011300
       CHANNELS 3 Yrotation Xrotation Zrotation
       End Site
       {
        OFFSET 0.000000 17.073600 -0.006000
       }
      }
     }
     JOINT RightCollar
     {
      OFFSET -2.921100 9.558500 0.000000
      CHANNELS 3 Yrotation Xrotation Zrotation
      JOINT RightShoulder
      {
       OFFSET -13.519700 0.000000 0.000000
       CHANNELS 3 Yrotation Xrotation Zrotation
       JOINT RightElbow
       {
        OFFSET 0.000000 -29.696600 0.000000
        CHANNELS 3 Yrotation Xrotation Zrotation
        JOINT RightWrist
        {
         OFFSET 0.000000 -24.004700 0.000000
         CHANNELS 3 Yrotation Xrotation Zrotation
         End Site
         {
          OFFSET 0.000000 -17.728500 0.000000
         }
        }
       }
      }
     }
     JOINT LeftCollar
     {
      OFFSET 2.921100 9.558500 0.000000
      CHANNELS 3 Yrotation Xrotation Zrotation
      JOINT LeftShoulder
      {
       OFFSET 13.519700 0.000000 0.000000
       CHANNELS 3 Yrotation Xrotation Zrotation
       JOINT LeftElbow
       {
        OFFSET 0.000000 -29.696600 0.000000
        CHANNELS 3 Yrotation Xrotation Zrotation
        JOINT LeftWrist
        {
         OFFSET 0.000000 -24.004700 0.000000
         CHANNELS 3 Yrotation Xrotation Zrotation
         End Site
         {
          OFFSET 0.000000 -17.728500 0.000000
         }
        }
       }
      }
     }
    }
   }
  }
 }
 JOINT RightHip
 {
  OFFSET -7.771700 -0.012900 -0.001300
  CHANNELS 3 Yrotation Xrotation Zrotation
  JOINT RightKnee
  {
   OFFSET 0.000000 -40.869800 0.001200
   CHANNELS 3 Yrotation Xrotation Zrotation
   JOINT RightAnkle
   {
    OFFSET 0.000000 -39.717900 0.002100
    CHANNELS 3 Yrotation Xrotation Zrotation
    JOINT RightToe
    {
     OFFSET 0.000000 -4.965400 11.033500
     CHANNELS 3 Yrotation Xrotation Zrotation
     End Site
     {
      OFFSET 0.000000 -1.423100 5.872300
     }
    }
   }
  }
 }
 JOINT LeftHip
 {
  OFFSET 7.771700 -0.012900 -0.001300
  CHANNELS 3 Yrotation Xrotation Zrotation
  JOINT LeftKnee
  {
   OFFSET 0.000000 -40.869800 0.001200
   CHANNELS 3 Yrotation Xrotation Zrotation
   JOINT LeftAnkle
   {
    OFFSET 0.000000 -39.717900 0.002100
    CHANNELS 3 Yrotation Xrotation Zrotation
    JOINT LeftToe
    {
     OFFSET 0.000000 -4.965400 11.033500
     CHANNELS 3 Yrotation Xrotation Zrotation
     End Site
     {
      OFFSET 0.000000 -1.423100 5.872300
     }
    }
   }
  }
 }
}
MOTION
Frames: 16
Frame Time: 0.008333
0.000000 85.388000 0.000000 0.000000 -5.767877 0.000000 0.000000 11.653817 0.000000 0.000000 -5.885947 0.000000 0.000000 -0.000000 0.000000 0.000000 -0.000000 0.000000 0.000000 12.528835 0.000000 0.000000 0.711642 0.000000 0.000000 -0.000000 0.000000 0.000000 0.000000 -90.000000 0.000000 -2.309062 0.000000 0.000000 2.309062 0.000000 0.000000 -0.000000 0.000000 0.000000 -0.000000 90.000000 0.000000 -2.309062 0.000000 0.000000 2.309062 0.000000 0.000000 8.520406 0.000000 0.000000 1.905762 0.000000 -0.000000 -4.658285 0.000000 0.000000 -0.000000 0.000000 0.000000 8.520406 0.000000 0.000000 1.905762 0.000000 -0.000000 -4.658285 0.000000 0.000000 -0.000000 0.000000
-210.786045 57.601154 -69.583892 159.335804 -7.674884 0.683198 3.601178 5.965358 1.220758 0.131961 0.245021 0.011941 0.232038 0.430532 0.021538 3.105677 5.711999 0.429056 0.766809 16.505165 -0.916821 1.750132 -5.022917 -1.934976 1.315015 7.608257 0.305422 -5.601039 -7.476590 -7.859767 -153.621789 -84.247718 178.083043 -1.152302 6.034757 -30.727649 -3.903411 7.531416 -1.814352 17.268810 -4.959034 1.833128 85.654219 -76.013157 -117.502251 0.291831 6.540800 16.606795 -12.473256 -64.345239 6.799972 -34.232270 71.936763 -35.688458 -4.500193 -7.090933 -0.458870 -0.268887 0.878936 -0.145194 -0.120019 -66.678112 16.152117 41.194668 65.783421 34.403430 -18.024590 -8.487872 3.742769 -0.325852 -1.206664 -0.175376
-210.781329 57.600592 -69.586273 159.348291 -7.710293 0.668620 3.607545 5.951536 1.243076 0.132179 0.245738 0.012136 0.225016 0.454710 0.020329 3.114090 5.698514 0.432246 0.757474 16.564805 -0.905847 1.745061 -4.944815 -1.914720 1.252677 7.667017 0.290410 -5.643164 -7.437984 -7.845448 -152.553707 -84.241486 177.083428 -1.169346 6.056669 -30.751140 -3.889496 7.599942 -1.798924 17.347938 -4.871655 1.808456 85.849315 -76.030263 -117.745992 0.277826 6.594869 16.620295 -12.518716 -64.310628 6.817853 -34.249218 71.951972 -35.679623 -4.512269 -7.094117 -0.498251 -0.248877 0.866625 -0.130047 -0.150101 -66.643880 16.180285 41.197873 65.780072 34.399665 -18.006316 -8.457331 3.753300 -0.315494 -1.211515 -0.171464
-210.781308 57.599648 -69.588780 159.407166 -7.738813 0.676854 3.553272 5.957931 1.230288 0.132551 0.246441 0.012194 0.225810 0.453158 0.020813 3.115292 5.710429 0.433464 0.758857 16.599853 -0.893727 1.739203 -4.870178 -1.894881 1.231149 7.686283 0.286928 -5.716647 -7.389976 -7.832223 -151.225645 -84.235457 175.830451 -1.191767 6.078253 -30.774224 -3.862743 7.638725 -1.774946 17.433515 -4.776509 1.781105 86.031003 -76.049674 -117.948039 0.254393 6.632781 16.605644 -12.539400 -64.287997 6.770099 -34.257156 71.959104 -35.679907 -4.547047 -7.045855 -0.520698 -0.200939 0.813567 -0.105350 -0.154567 -66.618997 16.131088 41.203677 65.774788 34.404502 -18.063701 -8.482369 3.744687 -0.265662 -1.166434 -0.148770
-210.778047 57.598222 -69.588330 159.347464 -7.757571 0.679229 3.617558 5.962424 1.238249 0.133430 0.243435 0.011815 0.227042 0.448987 0.021965 3.111522 5.728779 0.433908 0.772179 16.651010 -0.876483 1.724175 -4.823770 -1.880306 1.178943 7.710221 0.267620 -5.760679 -7.356899 -7.801775 -149.631607 -84.228441 174.323628 -1.222154 6.099445 -30.804594 -3.829923 7.664907 -1.748387 17.522343 -4.675779 1.751215 86.200892 -76.078063 -118.108770 0.229156 6.636601 16.551376 -12.503737 -64.269302 6.783233 -34.238042 71.967455 -35.663489 -4.489793 -7.103012 -0.508197 -0.248873 0.870607 -0.126424 -0.089752 -66.602982 16.136662 41.203117 65.773294 34.406817 -18.042437 -8.372070 3.754602 -0.308234 -1.263870 -0.161014
-210.774646 57.596886 -69.589709 159.345782 -7.788972 0.679237 3.620792 5.989477 1.240787 0.136668 0.232232 0.012240 0.229593 0.449379 0.021747 3.111999 5.737624 0.432746 0.770681 16.685174 -0.866653 1.715563 -4.763772 -1.859879 1.149629 7.727540 0.263467 -5.834874 -7.319505 -7.776989 -147.809984 -84.217353 172.602488 -1.260485 6.120934 -30.843831 -3.800272 7.693255 -1.719492 17.614480 -4.577162 1.720034 86.439130 -76.111097 -118.361661 0.215748 6.647939 16.531346 -12.508231 -64.240269 6.773590 -34.240361 71.976585 -35.658158 -4.461719 -7.105430 -0.520571 -0.261271 0.866922 -0.127296 -0.079097 -66.572288 16.133275 41.197106 65.773672 34.402875 -18.046023 -8.344949 3.754378 -0.342287 -1.227950 -0.159454
-210.773671 57.595466 -69.592175 159.348315 -7.822829 0.696411 3.617971 6.009054 1.224132 0.137192 0.239687 0.014473 0.230425 0.444229 0.019355 3.125294 5.743467 0.432488 0.761574 16.725360 -0.852772 1.703288 -4.716883 -1.843173 1.113381 7.746735 0.262916 -5.908901 -7.289933 -7.750333 -145.826545 -84.202329 170.722571 -1.306955 6.141810 -30.885995 -3.787832 7.717160 -1.695857 17.721216 -4.480638 1.694729 86.707544 -76.153386 -118.639355 0.204192 6.659426 16.513689 -12.488891 -64.218300 6.731088 -34.240223 71.997009 -35.651773 -4.456756 -7.106336 -0.538091 -0.258690 0.857803 -0.123699 -0.034672 -66.540087 16.090778 41.217208 65.767222 34.420634 -18.092299 -8.298907 3.756005 -0.300351 -1.234335 -0.152915
-210.768915 57.593967 -69.593553 159.355345 -7.860252 0.690786 3.622662 6.013548 1.238932 0.129058 0.263553 0.010294 0.234852 0.437469 0.021561 3.119130 5.757843 0.429498 0.762611 16.750621 -0.844964 1.691919 -4.668430 -1.826971 1.100510 7.754114 0.260382 -5.989214 -7.261070 -7.723005 -143.759526 -84.182636 168.753549 -1.357999 6.158022 -30.927764 -3.750815 7.739845 -1.672495 17.818321 -4.393952 1.666530 87.022616 -76.204687 -118.951947 0.189619 6.673705 16.503000 -12.505937 -64.180385 6.735124 -34.247532 72.001613 -35.657979 -4.447553 -7.108765 -0.542630 -0.267876 0.856635 -0.125443 -0.044016 -66.505623 16.102734 41.224281 65.761718 34.427285 -18.099833 -8.255051 3.752362 -0.275036 -1.236177 -0.143915
-210.765919 57.592081 -69.592920 159.358151 -7.884470 0.691989 3.625558 6.023763 1.239976 0.134225 0.250705 0.012038 0.227356 0.451852 0.021875 3.120970 5.769399 0.428794 0.759346 16.768809 -0.839857 1.680001 -4.618591 -1.810175 1.083367 7.760848 0.258338 -6.068933 -7.236443 -7.694417 -141.715438 -84.157279 166.804684 -1.408825 6.166150 -30.970301 -3.716801 7.762799 -1.650668 17.908923 -4.314474 1.641891 87.393239 -76.264739 -119.299551 0.171625 6.690450 16.494993 -12.509882 -64.155936 6.732911 -34.247800 72.001810 -35.661041 -4.437909 -7.114831 -0.544586 -0.277914 0.863247 -0.127418 -0.046822 -66.485058 16.100927 41.229905 65.757414 34.430776 -18.073281 -8.203735 3.756282 -0.280837 -1.247006 -0.145490
-210.763443 57.589888 -69.590184 159.353707 -7.897751 0.692866 3.633597 6.026737 1.241189 0.133552 0.254517 0.011830 0.233956 0.446983 0.021439 3.129552 5.774879 0.427948 0.743317 16.779914 -0.834071 1.667616 -4.561965 -1.791614 1.050288 7.773713 0.257382 -6.143234 -7.216757 -7.661529 -139.806502 -84.127381 164.988525 -1.456718 6.168654 -31.017050 -3.724779 7.774544 -1.642163 18.020721 -4.230033 1.635123 87.806849 -76.332890 -119.670667 0.151695 6.710619 16.485139 -12.511672 -64.143646 6.738295 -34.240810 72.001282 -35.652510 -4.440725 -7.114637 -0.553312 -0.282098 0.868980 -0.126606 -0.054574 -66.468920 16.112873 41.235262 65.750864 34.429350 -18.069743 -8.185729 3.757487 -0.288680 -1.227610 -0.145135
-210.761648 57.587940 -69.589431 159.356991 -7.923058 0.700634 3.630015 6.048986 1.234828 0.134456 0.251385 0.011940 0.236442 0.441625 0.021478 3.134789 5.783650 0.426189 0.736533 16.802262 -0.827469 1.652190 -4.522223 -1.775099 1.027379 7.785032 0.257955 -6.213320 -7.201736 -7.628910 -138.131442 -84.093501 163.399788 -1.500215 6.169715 -31.069706 -3.697848 7.804543 -1.620581 18.099875 -4.165978 1.610840 88.237194 -76.405805 -120.049234 0.133233 6.732622 16.479881 -12.499572 -64.123323 6.720878 -34.246004 72.006040 -35.661870 -4.439517 -7.119112 -0.553498 -0.286436 0.871204 -0.128275 -0.051633 -66.442161 16.100465 41.241252 65.743805 34.433569 -18.067417 -8.165091 3.756212 -0.298110 -1.228651 -0.147358
-210.761638 57.586029 -69.588759 159.368787 -7.947211 0.717289 3.621847 6.062215 1.219297 0.140153 0.242950 0.013330 0.238587 0.441503 0.021365 3.129471 5.801346 0.424442 0.731286 16.832712 -0.819204 1.633794 -4.492473 -1.759612 1.013024 7.793360 0.258980 -6.247577 -7.196684 -7.611997 -136.623248 -84.059610 161.930647 -1.536896 6.172123 -31.121810 -3.627547 7.858199 -1.581338 18.128873 -4.123979 1.566809 88.658899 -76.476358 -120.415858 0.118784 6.753543 16.482050 -12.476663 -64.106357 6.683335 -34.243790 72.012424 -35.663501 -4.456492 -7.125868 -0.558380 -0.282029 0.877140 -0.125475 -0.041344 -66.415803 16.068091 41.239476 65.735565 34.427381 -18.069959 -8.130871 3.761140 -0.304130 -1.239707 -0.155093
-210.759134 57.583945 -69.585324 159.363809 -7.962631 0.716304 3.633317 6.064703 1.224775 0.139010 0.245603 0.012742 0.236281 0.446706 0.020488 3.129336 5.805157 0.423821 0.729620 16.842774 -0.816062 1.624241 -4.473032 -1.750484 1.000742 7.794650 0.259700 -6.275461 -7.186868 -7.596015 -135.471678 -84.024218 160.807564 -1.564293 6.177361 -31.166173 -3.592562 7.879533 -1.564549 18.188540 -4.064119 1.549441 89.038246 -76.535747 -120.741082 0.107672 6.773371 16.490257 -12.481558 -64.092915 6.696672 -34.229827 72.014076 -35.657090 -4.449619 -7.121308 -0.565293 -0.274887 0.877399 -0.120793 -0.052364 -66.398834 16.079414 41.222876 65.732936 34.413370 -18.057240 -8.116921 3.758925 -0.288320 -1.195397 -0.149958
-210.757765 57.582102 -69.582848 159.367922 -7.982652 0.722048 3.637851 6.064997 1.223257 0.135730 0.253717 0.011637 0.232364 0.454219 0.019481 3.135617 5.805593 0.421870 0.722520 16.863468 -0.807944 1.615579 -4.462546 -1.744146 0.986969 7.793993 0.259394 -6.354895 -7.158670 -7.555001 -134.867771 -83.985051 160.273721 -1.583323 6.187538 -31.208747 -3.565028 7.899878 -1.545216 18.243719 -4.006972 1.533258 89.348070 -76.577496 -121.000002 0.098980 6.793013 16.502825 -12.476765 -64.075871 6.691067 -34.239445 72.012291 -35.674319 -4.453123 -7.124914 -0.564121 -0.270341 0.883178 -0.121661 -0.055192 -66.376497 16.072627 41.201896 65.730181 34.393872 -18.058085 -8.103313 3.756369 -0.277775 -1.190940 -0.149994
-210.756349 57.580355 -69.579756 159.375054 -8.000398 0.725063 3.632756 6.077838 1.221067 0.135872 0.253998 0.011582 0.235952 0.450021 0.021256 3.144916 5.810874 0.417013 0.711959 16.901749 -0.794439 1.587876 -4.391884 -1.714353 0.964933 7.794510 0.265286 -6.380386 -7.146371 -7.537949 -134.429374 -83.954042 159.854769 -1.563994 6.200604 -31.224124 -3.553589 7.914346 -1.528854 18.303102 -3.951819 1.521029 89.574760 -76.598918 -121.179933 0.093729 6.811382 16.515416 -12.473889 -64.059990 6.682723 -34.246861 72.010551 -35.684346 -4.452676 -7.129934 -0.561867 -0.279743 0.890954 -0.126249 -0.100369 -66.351255 16.103523 41.199310 65.721738 34.377429 -18.066259 -8.090359 3.750486 -0.288115 -1.184913 -0.150087
-210.756618 57.578928 -69.578134 159.437610 -8.024241 0.731732 3.571314 6.096866 1.206936 0.136048 0.254341 0.011546 0.240725 0.438401 0.023699 3.139736 5.827131 0.415049 0.710641 16.915152 -0.790447 1.581465 -4.379501 -1.708817 0.962762 7.792108 0.266121 -6.387147 -7.141779 -7.533676 -134.159630 -83.926823 159.578096 -1.565536 6.219445 -31.244318 -3.546730 7.917725 -1.524161 18.376521 -3.897940 1.515117 89.706906 -76.600353 -121.272478 0.093257 6.825334 16.527885 -12.498880 -64.041087 6.643631 -34.257792 72.010065 -35.694964 -4.488372 -7.079813 -0.580083 -0.242775 0.839473 -0.105631 -0.164377 -66.322581 16.093501 41.190207 65.714651 34.357335 -18.094480 -8.143292 3.737344 -0.261391 -1.102304 -0.133306
